# xmcd CD database file generated by Grip 2.96
# 
# Track frame offsets:
#       150
#       17342
#       32625
#       47900
#       63787
#       80775
#       95500
#       108525
#       126800
#       144475
# 
# Disc length: 2129 seconds
# 
# Revision: 0
# Processed by: cddbd v1.4PL0 Copyright (c) Steve Scherf et al.
# Submitted via: Grip 2.96
# 
DISCID=80084f0a
DTITLE=Country Comfort - Country Comfort II
DYEAR=1900
DGENRE=
TTITLE0=Mama
TTITLE1=Looking Into Your Eyes
TTITLE2=Changing Horses
TTITLE3=Pretty Girl
TTITLE4=End of the Line
TTITLE5=Good Weather
TTITLE6=I'll Be
TTITLE7=I Want You To Know
TTITLE8=Closer, Closer
TTITLE9=Hello Waimanalo
EXTD=
EXTT0=
EXTT1=
EXTT2=
EXTT3=
EXTT4=
EXTT5=
EXTT6=
EXTT7=
EXTT8=
EXTT9=
PLAYORDER=
